<mxfile host="app.diagrams.net" agent="Mozilla/5.0 (Macintosh; Intel Mac OS X 10_15_7) AppleWebKit/605.1.15 (KHTML, like Gecko) Version/17.5 Safari/605.1.15" version="24.7.13">
  <diagram name="Page-1" id="OL-ri_v8O1SVaGKDePar">
    <mxGraphModel dx="596" dy="404" grid="1" gridSize="10" guides="1" tooltips="1" connect="1" arrows="1" fold="1" page="1" pageScale="1" pageWidth="850" pageHeight="1100" math="0" shadow="0">
      <root>
        <mxCell id="0" />
        <mxCell id="1" parent="0" />
        <mxCell id="oyfi-5hGYGsT8HOiiuwC-3" style="edgeStyle=orthogonalEdgeStyle;rounded=0;orthogonalLoop=1;jettySize=auto;html=1;exitX=0.25;exitY=1;exitDx=0;exitDy=0;entryX=0.25;entryY=0;entryDx=0;entryDy=0;" edge="1" parent="1" source="oyfi-5hGYGsT8HOiiuwC-1" target="oyfi-5hGYGsT8HOiiuwC-2">
          <mxGeometry relative="1" as="geometry" />
        </mxCell>
        <mxCell id="oyfi-5hGYGsT8HOiiuwC-4" value="CAN&lt;div&gt;Bus&lt;/div&gt;" style="edgeLabel;html=1;align=center;verticalAlign=middle;resizable=0;points=[];" vertex="1" connectable="0" parent="oyfi-5hGYGsT8HOiiuwC-3">
          <mxGeometry x="-0.15" y="-2" relative="1" as="geometry">
            <mxPoint as="offset" />
          </mxGeometry>
        </mxCell>
        <mxCell id="oyfi-5hGYGsT8HOiiuwC-5" style="edgeStyle=orthogonalEdgeStyle;rounded=0;orthogonalLoop=1;jettySize=auto;html=1;exitX=0.75;exitY=1;exitDx=0;exitDy=0;entryX=0.75;entryY=0;entryDx=0;entryDy=0;" edge="1" parent="1" source="oyfi-5hGYGsT8HOiiuwC-1" target="oyfi-5hGYGsT8HOiiuwC-2">
          <mxGeometry relative="1" as="geometry" />
        </mxCell>
        <mxCell id="oyfi-5hGYGsT8HOiiuwC-6" value="24V&lt;div&gt;4A&lt;/div&gt;" style="edgeLabel;html=1;align=center;verticalAlign=middle;resizable=0;points=[];" vertex="1" connectable="0" parent="oyfi-5hGYGsT8HOiiuwC-5">
          <mxGeometry x="-0.2929" relative="1" as="geometry">
            <mxPoint y="5" as="offset" />
          </mxGeometry>
        </mxCell>
        <mxCell id="oyfi-5hGYGsT8HOiiuwC-1" value="RJ45 Jack&lt;div&gt;Top&lt;/div&gt;" style="whiteSpace=wrap;html=1;aspect=fixed;" vertex="1" parent="1">
          <mxGeometry x="380" y="240" width="80" height="80" as="geometry" />
        </mxCell>
        <mxCell id="oyfi-5hGYGsT8HOiiuwC-2" value="RJ45 Jack&lt;div&gt;Bottom&lt;/div&gt;" style="whiteSpace=wrap;html=1;aspect=fixed;" vertex="1" parent="1">
          <mxGeometry x="380" y="390" width="80" height="80" as="geometry" />
        </mxCell>
      </root>
    </mxGraphModel>
  </diagram>
</mxfile>
